<?xml version="1.0" standalone="no"?>
<!DOCTYPE svg PUBLIC "-//W3C//DTD SVG 20010904//EN"
 "http://www.w3.org/TR/2001/REC-SVG-20010904/DTD/svg10.dtd">
<svg version="1.0" xmlns="http://www.w3.org/2000/svg"
 width="250.000000pt" height="250.000000pt" viewBox="0 0 250.000000 250.000000"
 preserveAspectRatio="xMidYMid meet">
<metadata>
Created by potrace 1.14, written by Peter Selinger 2001-2017
</metadata>
<g transform="translate(0.000000,250.000000) scale(0.100000,-0.100000)"
fill="#000000" stroke="none">
<path d="M0 1250 l0 -1250 1250 0 1250 0 0 1250 0 1250 -1250 0 -1250 0 0
-1250z m1340 978 c47 -61 87 -114 88 -119 2 -5 -19 -9 -47 -9 l-51 0 0 -265 0
-265 -75 0 -75 0 0 265 0 265 -56 0 c-31 0 -54 4 -52 9 5 14 173 230 178 230
3 0 43 -50 90 -111z m-85 -728 l154 0 3 110 3 110 213 -122 c116 -68 212 -125
212 -128 0 -10 -572 -335 -590 -335 -18 0 -590 325 -590 335 0 3 98 62 218
131 l217 125 3 -113 3 -113 154 0z m-322 -310 l267 -154 0 -343 c0 -189 -2
-343 -5 -343 -10 0 -495 283 -495 289 0 3 63 42 140 85 77 43 137 82 135 86
-3 4 -66 42 -140 84 l-135 77 -46 -25 c-26 -14 -48 -26 -50 -26 -2 0 -4 104
-4 231 l0 231 33 -19 c17 -10 152 -88 300 -173z m964 -267 c-2 -2 -25 8 -50
23 l-47 25 -135 -77 c-74 -42 -137 -80 -140 -84 -2 -4 58 -43 135 -86 77 -43
140 -82 140 -85 0 -6 -485 -289 -495 -289 -3 0 -5 154 -5 343 l0 343 298 171
297 172 3 -226 c1 -124 1 -228 -1 -230z m-1129 -79 c57 -32 63 -38 46 -47 -10
-6 -110 -63 -222 -128 l-203 -117 47 -28 c26 -15 43 -29 38 -30 -17 -5 -367
-34 -370 -31 -3 3 45 209 51 215 2 2 26 -8 52 -23 l49 -28 220 127 c120 69
221 126 223 126 2 0 33 -16 69 -36z m1266 -96 l210 -121 49 28 c26 15 50 25
52 23 6 -6 54 -212 51 -215 -3 -3 -353 26 -370 31 -5 1 12 15 38 30 l47 28
-203 117 c-112 65 -211 122 -222 128 -16 9 -11 15 45 47 35 19 71 33 79 30 8
-3 109 -60 224 -126z"/>
</g>
</svg>
